HIERARCHY
ROOT SpineBase
{
  OFFSET 0.000000 0.000000 0.000000
  CHANNELS 6 Xposition Yposition Zposition Zrotation Xrotation Yrotation
  JOINT SpineMid
  {
    OFFSET -0.000000 32.760985 0.000000
    CHANNELS 3 Zrotation Xrotation Yrotation
    JOINT SpineShoulder
    {
      OFFSET -0.199192 24.318152 -0.969706
      CHANNELS 3 Zrotation Xrotation Yrotation
      JOINT Neck
      {
        OFFSET -0.134781 8.050961 -0.679220
        CHANNELS 3 Zrotation Xrotation Yrotation
        JOINT Head
        {
          OFFSET -6.717272 11.653272 2.977084
          CHANNELS 3 Zrotation Xrotation Yrotation
          End Site
          {
            OFFSET 0 0 0
          }
        }
      }
      JOINT ShoulderLeft
      {
        OFFSET -8.346159 -6.224202 13.321439
        CHANNELS 3 Zrotation Xrotation Yrotation
        JOINT ElbowLeft
        {
          OFFSET -3.052506 -31.331447 0.640561
          CHANNELS 3 Zrotation Xrotation Yrotation
          JOINT WristLeft
          {
            OFFSET -4.007222 -23.907141 0.211278
            CHANNELS 3 Zrotation Xrotation Yrotation
            JOINT HandLeft
            {
              OFFSET -4.794987 -5.634114 1.843346
              CHANNELS 3 Zrotation Xrotation Yrotation
              JOINT HandTipLeft
              {
                OFFSET -2.323654 -7.197599 -1.975111
                CHANNELS 3 Zrotation Xrotation Yrotation
                End Site
                {
                  OFFSET 0 0 0
                }
              }
              JOINT ThumbLeft
              {
                OFFSET -2.740616 1.676830 1.452816
                CHANNELS 3 Zrotation Xrotation Yrotation
                End Site
                {
                  OFFSET 0 0 0
                }
              }
            }
          }
        }
      }
      JOINT ShoulderRight
      {
        OFFSET 3.750659 -4.953402 -14.355713
        CHANNELS 3 Zrotation Xrotation Yrotation
        JOINT ElbowRight
        {
          OFFSET -4.850881 -25.714251 -4.895984
          CHANNELS 3 Zrotation Xrotation Yrotation
          JOINT WristRight
          {
            OFFSET -8.996161 -20.650836 4.501624
            CHANNELS 3 Zrotation Xrotation Yrotation
            JOINT HandRight
            {
              OFFSET -1.587345 -8.445946 4.965871
              CHANNELS 3 Zrotation Xrotation Yrotation
              JOINT HandTipRight
              {
                OFFSET -3.095961 -8.461557 2.002990
                CHANNELS 3 Zrotation Xrotation Yrotation
                End Site
                {
                  OFFSET 0 0 0
                }
              }
              JOINT ThumbRight
              {
                OFFSET 4.407010 1.898480 2.333474
                CHANNELS 3 Zrotation Xrotation Yrotation
                End Site
                {
                  OFFSET 0 0 0
                }
              }
            }
          }
        }
      }
    }
  }
  JOINT HipLeft
  {
    OFFSET -3.822418 -0.227809 3.452663
    CHANNELS 3 Zrotation Xrotation Yrotation
    JOINT KneeLeft
    {
      OFFSET -13.407719 -25.813940 4.266683
      CHANNELS 3 Zrotation Xrotation Yrotation
      JOINT AnkleLeft
      {
        OFFSET -22.071154 -14.471746 -24.406708
        CHANNELS 3 Zrotation Xrotation Yrotation
        JOINT FootLeft
        {
          OFFSET -10.028445 -3.323066 -6.591587
          CHANNELS 3 Zrotation Xrotation Yrotation
          End Site
          {
            OFFSET 0 0 0
          }
        }
      }
    }
  }
  JOINT HipRight
  {
    OFFSET 2.808151 2.437523 -10.258266
    CHANNELS 3 Zrotation Xrotation Yrotation
    JOINT KneeRight
    {
      OFFSET -1.684748 -31.065869 1.402528
      CHANNELS 3 Zrotation Xrotation Yrotation
      JOINT AnkleRight
      {
        OFFSET -1.845934 -38.090521 5.736365
        CHANNELS 3 Zrotation Xrotation Yrotation
        JOINT FootRight
        {
          OFFSET -6.718365 -5.572987 -5.324544
          CHANNELS 3 Zrotation Xrotation Yrotation
          End Site
          {
            OFFSET 0 0 0
          }
        }
      }
    }
  }
}
MOTION
Frames: 5
Frame Time: 0.033333
45.239159 58.082833 289.100622 33.372189 -8.496049 33.044957 -1.175818 -0.140831 -28.975177 -0.458509 -0.229745 1.424368 8.353611 12.325303 -14.430829 0.000000 0.000000 0.000000 1.576907 0.385848 -1.119029 -27.856317 40.333299 -6.355824 -44.065500 -15.216570 -31.317024 -19.997425 52.053949 35.615703 0.000000 0.000000 0.000000 0.000000 0.000000 0.000000 -58.917130 14.100491 10.529840 16.613404 4.906645 -9.444990 -5.562827 6.514243 -5.734196 0.101624 -7.074065 4.227056 0.000000 0.000000 0.000000 0.000000 0.000000 0.000000 -59.527629 25.602069 -11.288361 24.393211 33.918179 -20.330693 117.922788 -50.775381 -17.277313 0.000000 0.000000 0.000000 -29.396475 33.893221 -23.900193 -6.667993 -10.195366 -2.913948 34.893438 -8.352808 -5.424391 0.000000 0.000000 0.000000
45.739626 58.989576 289.055930 33.092641 -8.708918 36.396324 -0.457961 -0.014050 -32.449679 -0.433691 -0.224876 1.438824 7.303638 12.372924 -14.019440 0.000000 0.000000 0.000000 1.535429 0.738584 -1.310622 -30.568835 36.881797 -4.766585 -40.794822 0.334323 -35.504833 -14.703045 41.340826 38.739952 0.000000 0.000000 0.000000 0.000000 0.000000 0.000000 -58.855937 14.145388 10.228024 16.952691 5.614004 -9.547753 -4.904418 5.804964 -4.868558 -2.537817 -5.020125 2.227001 0.000000 0.000000 0.000000 0.000000 0.000000 0.000000 -56.848888 26.568170 -13.412053 23.899284 35.098478 -22.273686 124.553987 -45.872416 -4.980576 0.000000 0.000000 0.000000 -24.914361 34.262610 -28.477195 -12.099943 -9.438029 -4.063142 76.499811 -31.335779 10.063025 0.000000 0.000000 0.000000
46.399590 60.933943 289.094037 33.735547 -9.025321 35.434695 -0.328190 0.276897 -31.402705 -0.877162 0.291487 1.327479 5.690285 11.756253 -13.366145 0.000000 0.000000 0.000000 2.139968 0.432062 -1.298402 -29.432276 31.101084 -4.270055 -48.270423 19.579383 -40.758238 -4.042982 43.351094 48.891991 0.000000 0.000000 0.000000 0.000000 0.000000 0.000000 -58.834840 14.078258 9.855481 17.220165 6.671359 -9.898550 -4.657454 4.561311 -4.288489 -5.425596 -2.862886 0.411799 0.000000 0.000000 0.000000 0.000000 0.000000 0.000000 -55.368653 25.090292 -12.934637 19.613733 35.624321 -19.473920 130.124523 -42.268291 5.980956 0.000000 0.000000 0.000000 -24.351767 35.033402 -27.879471 -14.801593 -10.700167 -4.976209 89.906319 -35.451814 10.480085 0.000000 0.000000 0.000000
48.025019 63.283459 288.230399 34.057788 -7.977020 31.982366 -0.601242 0.139981 -28.150769 -0.969731 0.252192 1.348697 2.584371 11.094500 -12.083216 0.000000 0.000000 0.000000 -0.312385 1.041258 -1.446660 -28.216573 29.943350 -4.204966 -33.656243 29.569366 -46.715496 -4.770968 30.784621 48.369684 0.000000 0.000000 0.000000 0.000000 0.000000 0.000000 -57.481638 13.665046 8.791377 15.309961 8.338582 -10.429222 -5.151293 2.966675 -4.581755 -7.478846 -2.451219 -0.061589 0.000000 0.000000 0.000000 0.000000 0.000000 0.000000 -58.006631 22.808021 -11.264647 20.520141 34.979820 -18.812052 134.054939 -29.510184 24.474753 0.000000 0.000000 0.000000 -30.197601 34.439034 -23.104254 -10.396339 -10.741065 -4.209160 87.048923 -34.931342 12.095923 0.000000 0.000000 0.000000
49.972474 65.579096 287.322158 33.680012 -6.924523 32.620555 -0.315447 -0.008013 -29.158659 -1.786746 0.321688 1.320127 -0.730775 9.976366 -10.383031 0.000000 0.000000 0.000000 -2.808445 0.312920 -1.101619 -30.389882 33.389369 -3.243935 -23.013902 32.123254 -52.191874 -4.266514 19.761348 49.836642 0.000000 0.000000 0.000000 0.000000 0.000000 0.000000 -55.517615 13.529456 7.608141 12.828900 7.277048 -10.196328 -5.935075 6.807963 -5.875923 -9.448981 -9.570602 -0.413038 0.000000 0.000000 0.000000 0.000000 0.000000 0.000000 -61.239228 22.701621 -11.338903 23.868609 35.699716 -19.119558 131.096700 -23.881399 31.474486 0.000000 0.000000 0.000000 -35.484287 34.587523 -21.811944 -1.677299 -9.149093 -2.233066 76.044380 -32.954787 14.352740 0.000000 0.000000 0.000000
